HIERARCHY
ROOT Hips
{
	OFFSET 0.00000 0.00000 0.00000
	CHANNELS 6 Xposition Yposition Zposition Zrotation Yrotation Xrotation 
	JOINT LHipJoint
	{
		OFFSET 0 0 0
		CHANNELS 3 Zrotation Yrotation Xrotation
		JOINT LeftUpLeg
		{
			OFFSET 1.42489 -1.84941 0.69647
			CHANNELS 3 Zrotation Yrotation Xrotation
			JOINT LeftLeg
			{
				OFFSET 2.44443 -6.71602 0.00000
				CHANNELS 3 Zrotation Yrotation Xrotation
				JOINT LeftFoot
				{
					OFFSET 2.62838 -7.22137 0.00000
					CHANNELS 3 Zrotation Yrotation Xrotation
					JOINT LeftToeBase
					{
						OFFSET 0.24036 -0.66037 2.29953
						CHANNELS 3 Zrotation Yrotation Xrotation
						End Site
						{
							OFFSET 0.00000 -0.00000 1.19837
						}
					}
				}
			}
		}
	}
	JOINT RHipJoint
	{
		OFFSET 0 0 0
		CHANNELS 3 Zrotation Yrotation Xrotation
		JOINT RightUpLeg
		{
			OFFSET -1.37055 -1.84941 0.69647
			CHANNELS 3 Zrotation Yrotation Xrotation
			JOINT RightLeg
			{
				OFFSET -2.54834 -7.00152 0.00000
				CHANNELS 3 Zrotation Yrotation Xrotation
				JOINT RightFoot
				{
					OFFSET -2.65692 -7.29983 0.00000
					CHANNELS 3 Zrotation Yrotation Xrotation
					JOINT RightToeBase
					{
						OFFSET -0.18839 -0.51760 2.29390
						CHANNELS 3 Zrotation Yrotation Xrotation
						End Site
						{
							OFFSET -0.00000 -0.00000 1.18261
						}
					}
				}
			}
		}
	}
	JOINT LowerBack
	{
		OFFSET 0 0 0
		CHANNELS 3 Zrotation Yrotation Xrotation
		JOINT Spine
		{
			OFFSET 0.05220 2.15489 0.05011
			CHANNELS 3 Zrotation Yrotation Xrotation
			JOINT Spine1
			{
				OFFSET -0.07653 2.14219 -0.05668
				CHANNELS 3 Zrotation Yrotation Xrotation
				JOINT Neck
				{
					OFFSET 0 0 0
					CHANNELS 3 Zrotation Yrotation Xrotation
					JOINT Neck1
					{
						OFFSET 0.01370 1.58638 0.01447
						CHANNELS 3 Zrotation Yrotation Xrotation
						JOINT Head
						{
							OFFSET 0.23548 1.54190 -0.21747
							CHANNELS 3 Zrotation Yrotation Xrotation
							End Site
							{
								OFFSET 0.07132 1.59823 -0.08163
							}
						}
					}
				}
				JOINT LeftShoulder
				{
					OFFSET 0 0 0
					CHANNELS 3 Zrotation Yrotation Xrotation
					JOINT LeftArm
					{
						OFFSET 3.47056 1.45357 -0.58896
						CHANNELS 3 Zrotation Yrotation Xrotation
						JOINT LeftForeArm
						{
							OFFSET 5.19069 -0.00000 0.00000
							CHANNELS 3 Zrotation Yrotation Xrotation
							JOINT LeftHand
							{
								OFFSET 3.30016 -0.00000 0.00000
								CHANNELS 3 Zrotation Yrotation Xrotation
								JOINT LeftFingerBase
								{
									OFFSET 0 0 0
									CHANNELS 3 Zrotation Yrotation Xrotation
									JOINT LeftHandIndex1
									{
										OFFSET 0.70770 -0.00000 0.00000
										CHANNELS 3 Zrotation Yrotation Xrotation
										End Site
										{
											OFFSET 0.57056 -0.00000 0.00000
										}
									}
								}
								JOINT LThumb
								{
									OFFSET 0 0 0
									CHANNELS 3 Zrotation Yrotation Xrotation
									End Site
									{
										OFFSET 0.57928 -0.00000 0.57928
									}
								}
							}
						}
					}
				}
				JOINT RightShoulder
				{
					OFFSET 0 0 0
					CHANNELS 3 Zrotation Yrotation Xrotation
					JOINT RightArm
					{
						OFFSET -2.89018 2.03305 -0.26731
						CHANNELS 3 Zrotation Yrotation Xrotation
						JOINT RightForeArm
						{
							OFFSET -5.23924 -0.00000 0.00000
							CHANNELS 3 Zrotation Yrotation Xrotation
							JOINT RightHand
							{
								OFFSET -3.32953 -0.00000 0.00000
								CHANNELS 3 Zrotation Yrotation Xrotation
								JOINT RightFingerBase
								{
									OFFSET 0 0 0
									CHANNELS 3 Zrotation Yrotation Xrotation
									JOINT RightHandIndex1
									{
										OFFSET -0.60741 -0.00000 0.00000
										CHANNELS 3 Zrotation Yrotation Xrotation
										End Site
										{
											OFFSET -0.48971 -0.00000 0.00000
										}
									}
								}
								JOINT RThumb
								{
									OFFSET 0 0 0
									CHANNELS 3 Zrotation Yrotation Xrotation
									End Site
									{
										OFFSET -0.49719 -0.00000 0.49719
									}
								}
							}
						}
					}
				}
			}
		}
	}
}
MOTION
Frames: 16
Frame Time: .0083333
24.5493 17.089 -29.3458 0 0 0 0 0 0 -21 0 0 0 0 0 0 0 0 0 0 0 0 0 0 21 0 0 0 0 0 0 0 0 0 0 0 0 0 0 0 0 0 0 0 0 0 0 -16 0 0 21 0 0 11 0 0 0 -8 0 0 0 0 0 0 0 0 0 0 0 0 0 0 0 0 0 0 0 0 8 0 0 0 0 0 0 0 0 0 0 0 0 0 0 0 0 0
24.5493 17.0890 -29.3458 -2.7947 -29.2294 9.9034 0.0000 0.0000 0.0000 -16.4825 4.6071 -36.1389 5.1115 13.5083 41.3022 1.0601 3.2069 -20.8525 0.0704 -1.7122 -4.7110 0.0000 0.0000 0.0000 21.3156 9.3638 -28.2545 -6.1928 -14.6126 45.7505 -1.9993 -4.2716 -28.5124 -0.0189 0.8877 -2.4399 3.3565 -3.0593 4.9495 -2.2161 -4.0442 8.1387 -4.1667 -1.7965 5.3126 -6.8479 -6.8640 -6.7244 16.1686 -9.0164 -1.9099 5.6253 -4.3283 1.6507 0.0000 0.0000 0.0000 -73.4309 -12.5134 55.3419 55.7548 -55.0683 -30.8338 -0.0000 0.0000 -81.4570 4.0165 -0.4009 -0.0281 -7.1250 0.0000 -0.0000 -17.4827 29.3375 6.9725 0.0000 0.0000 0.0000 71.6907 -8.8379 59.0711 -44.0717 50.3055 -21.5221 0.0000 0.0000 2.9437 -11.4571 -13.4128 2.6917 7.1250 -0.0000 -0.0000 14.4245 -43.1818 0.6619
24.5523 17.0893 -29.3417 -2.7908 -29.2518 9.8956 0.0000 0.0000 0.0000 -16.5058 4.6108 -36.1169 5.1099 13.5065 41.2954 1.0611 3.2361 -20.8769 0.0704 -1.7112 -4.7083 0.0000 0.0000 0.0000 21.2953 9.3240 -28.2561 -6.1934 -14.6132 45.7531 -2.0016 -4.2162 -28.5005 -0.0180 0.8666 -2.3818 2.8093 -3.5506 5.1489 -1.7426 -4.7028 7.6152 -3.3171 -2.1887 4.6546 -8.2791 -6.3117 -5.5097 16.2030 -8.2339 -1.6711 5.9553 -3.9676 1.4896 0.0000 -0.0000 0.0000 -74.5169 -11.0479 54.0702 55.8272 -55.0914 -30.8933 -0.0000 0.0000 -81.1235 3.9462 -0.1675 -0.0116 -7.1250 0.0000 -0.0000 -17.5755 29.5590 6.9153 0.0000 -0.0000 0.0000 70.0659 -9.1736 60.9273 -44.2214 50.3813 -21.6373 0.0000 0.0000 2.7662 -11.3635 -13.7159 2.7282 7.1250 -0.0000 -0.0000 14.5931 -43.4696 0.5639
24.5538 17.0889 -29.3386 -2.8191 -29.3318 9.8983 0.0000 0.0000 0.0000 -16.4934 4.6674 -36.1085 5.1144 13.5115 41.3148 1.0668 3.2383 -20.9288 0.0685 -1.6890 -4.6469 0.0000 0.0000 0.0000 21.3077 9.3749 -28.2197 -6.1938 -14.6136 45.7548 -2.0040 -4.1874 -28.5026 -0.0179 0.8630 -2.3718 3.0796 -3.4333 4.8955 -1.9914 -4.5477 7.8450 -3.7581 -2.0797 5.0163 -7.8494 -6.4156 -5.9355 16.3068 -8.4059 -1.5379 5.8907 -4.0341 1.6076 -0.0000 0.0000 0.0000 -73.9592 -11.5134 54.3735 55.8469 -55.0977 -30.9094 -0.0000 0.0000 -81.3198 4.0661 -0.1517 -0.0108 -7.1250 0.0000 -0.0000 -17.4875 29.5770 6.8696 -0.0000 0.0000 0.0000 70.6648 -8.9484 60.4838 -44.1162 50.3281 -21.5563 0.0000 0.0000 2.8498 -11.3728 -13.4730 2.6831 7.1250 -0.0000 -0.0000 14.5157 -43.2320 0.6479
24.5567 17.0885 -29.3351 -2.8437 -29.3175 9.8958 0.0000 0.0000 0.0000 -16.4743 4.6271 -36.0828 5.1187 13.5162 41.3330 1.0691 3.2720 -20.9675 0.0692 -1.6971 -4.6693 0.0000 0.0000 0.0000 21.3230 9.3403 -28.2099 -6.1941 -14.6139 45.7560 -2.0037 -4.1740 -28.4941 -0.0179 0.8643 -2.3755 3.1156 -3.3189 5.0265 -2.0054 -4.3905 7.8400 -3.7865 -2.0009 4.9474 -7.6459 -6.5405 -6.0083 16.2639 -8.5866 -1.5297 5.8301 -4.1222 1.6328 -0.0000 0.0000 0.0000 -73.8890 -11.6472 54.7665 55.8549 -55.1002 -30.9159 -0.0000 0.0000 -81.3406 4.1935 -0.1202 -0.0088 -7.1250 0.0000 -0.0000 -17.3965 29.6103 6.8161 -0.0000 0.0000 0.0000 70.8565 -9.0551 60.0998 -44.0945 50.3171 -21.5396 0.0000 0.0000 2.8580 -11.2973 -13.3406 2.6392 7.1250 -0.0000 -0.0000 14.5448 -43.0942 0.6999
24.5597 17.0873 -29.3325 -2.8783 -29.3192 9.8933 0.0000 0.0000 0.0000 -16.4490 4.6187 -36.0693 5.1261 13.5244 41.3645 1.0711 3.2792 -20.9888 0.0689 -1.6935 -4.6593 0.0000 0.0000 0.0000 21.3478 9.3006 -28.2029 -6.1954 -14.6151 45.7610 -1.9975 -4.1780 -28.4557 -0.0200 0.9137 -2.5113 3.2003 -3.3569 4.9195 -2.0581 -4.4434 7.9162 -3.8985 -2.0173 5.0750 -7.6196 -6.5036 -5.9297 16.3419 -8.5274 -1.6842 5.8583 -4.1016 1.5709 0.0000 -0.0000 0.0000 -73.7374 -11.7541 54.6162 55.8666 -55.1039 -30.9256 -0.0000 0.0000 -81.3800 4.2903 -0.0706 -0.0053 -7.1250 0.0000 -0.0000 -17.3317 29.6601 6.7668 0.0000 -0.0000 0.0000 70.9068 -8.9393 60.1553 -44.1140 50.3270 -21.5546 0.0000 0.0000 2.8447 -11.2229 -13.2951 2.6126 7.1250 -0.0000 -0.0000 14.5973 -43.0417 0.7219
24.5624 17.0867 -29.3295 -2.9021 -29.3299 9.8904 0.0000 0.0000 0.0000 -16.4351 4.6133 -36.0575 5.1331 13.5321 41.3944 1.0742 3.2904 -21.0221 0.0686 -1.6904 -4.6508 0.0000 0.0000 0.0000 21.3600 9.2812 -28.1912 -6.1967 -14.6163 45.7663 -1.9961 -4.1654 -28.4402 -0.0206 0.9266 -2.5469 3.2296 -3.3673 4.8986 -2.0751 -4.4573 7.9317 -3.9345 -2.0214 5.0989 -7.6281 -6.4831 -5.8389 16.3934 -8.4969 -1.7520 5.8814 -4.0924 1.5356 0.0000 0.0000 0.0000 -73.6836 -11.7645 54.5934 55.8874 -55.1106 -30.9426 -0.0000 0.0000 -81.3989 4.3833 -0.0307 -0.0024 -7.1250 0.0000 -0.0000 -17.2679 29.7006 6.7222 0.0000 0.0000 0.0000 70.9193 -8.9209 60.1707 -44.1188 50.3294 -21.5583 0.0000 0.0000 2.8293 -11.1565 -13.2370 2.5856 7.1250 -0.0000 -0.0000 14.6394 -42.9778 0.7478
24.5650 17.0860 -29.3267 -2.9255 -29.3405 9.8864 0.0000 0.0000 0.0000 -16.4213 4.6096 -36.0479 5.1410 13.5408 41.4283 1.0774 3.2981 -21.0545 0.0684 -1.6870 -4.6413 0.0000 0.0000 0.0000 21.3717 9.2658 -28.1797 -6.1991 -14.6185 45.7756 -1.9948 -4.1564 -28.4274 -0.0212 0.9405 -2.5852 3.2714 -3.3573 4.8795 -2.1046 -4.4440 7.9646 -3.9917 -2.0102 5.1413 -7.5890 -6.4826 -5.7721 16.4469 -8.4908 -1.8650 5.8956 -4.0964 1.4923 -0.0000 -0.0000 0.0000 -73.6025 -11.8306 54.6201 55.8986 -55.1141 -30.9518 -0.0000 0.0000 -81.4280 4.4806 -0.0029 -0.0002 -7.1250 0.0000 -0.0000 -17.1989 29.7296 6.6805 -0.0000 -0.0000 0.0000 70.9852 -8.8977 60.1116 -44.1238 50.3320 -21.5622 0.0000 0.0000 2.8160 -11.0868 -13.1691 2.5562 7.1250 -0.0000 -0.0000 14.6815 -42.9041 0.7774
24.5676 17.0851 -29.3241 -2.9464 -29.3487 9.8818 0.0000 0.0000 0.0000 -16.4104 4.6062 -36.0395 5.1483 13.5489 41.4596 1.0802 3.3044 -21.0830 0.0681 -1.6840 -4.6333 0.0000 0.0000 0.0000 21.3809 9.2514 -28.1703 -6.2020 -14.6212 45.7870 -1.9938 -4.1505 -28.4176 -0.0218 0.9536 -2.6211 3.2840 -3.3566 4.8854 -2.1103 -4.4428 7.9760 -4.0049 -2.0086 5.1490 -7.5914 -6.4709 -5.6639 16.4941 -8.4648 -2.0029 5.9177 -4.0929 1.4338 0.0000 -0.0000 0.0000 -73.5748 -11.8505 54.6215 55.9166 -55.1198 -30.9666 -0.0000 0.0000 -81.4442 4.5765 0.0214 0.0017 -7.1250 0.0000 -0.0000 -17.1303 29.7552 6.6405 0.0000 -0.0000 0.0000 70.9934 -8.9000 60.0922 -44.1403 50.3403 -21.5748 0.0000 0.0000 2.7941 -11.0125 -13.1178 2.5289 7.1250 -0.0000 -0.0000 14.7323 -42.8460 0.8018
24.5701 17.0842 -29.3216 -2.9646 -29.3615 9.8767 0.0000 0.0000 0.0000 -16.4026 4.6090 -36.0332 5.1559 13.5573 41.4921 1.0835 3.3029 -21.1121 0.0673 -1.6732 -4.6033 0.0000 0.0000 0.0000 21.3871 9.2439 -28.1617 -6.2056 -14.6247 45.8014 -1.9929 -4.1471 -28.4103 -0.0224 0.9665 -2.6566 3.2863 -3.3610 4.8904 -2.1113 -4.4488 7.9846 -4.0073 -2.0112 5.1546 -7.6080 -6.4507 -5.5502 16.5410 -8.4252 -2.1520 5.9432 -4.0833 1.3702 0.0000 -0.0000 0.0000 -73.5595 -11.8592 54.6012 55.9379 -55.1266 -30.9840 -0.0000 0.0000 -81.4570 4.6697 0.0464 0.0038 -7.1250 0.0000 -0.0000 -17.0637 29.7815 6.6013 0.0000 -0.0000 0.0000 70.9824 -8.9022 60.0979 -44.1581 50.3493 -21.5885 0.0000 0.0000 2.7710 -10.9420 -13.0790 2.5051 7.1250 -0.0000 -0.0000 14.7832 -42.8009 0.8216
24.5725 17.0832 -29.3193 -2.9784 -29.3770 9.8697 0.0000 0.0000 0.0000 -16.3998 4.6168 -36.0293 5.1637 13.5658 41.5251 1.0870 3.2997 -21.1410 0.0664 -1.6631 -4.5754 0.0000 0.0000 0.0000 21.3892 9.2430 -28.1532 -6.2101 -14.6289 45.8191 -1.9924 -4.1484 -28.4078 -0.0231 0.9803 -2.6947 3.2636 -3.3650 4.9189 -2.0962 -4.4540 7.9776 -3.9765 -2.0162 5.1332 -7.6403 -6.4292 -5.4361 16.5730 -8.3829 -2.2957 5.9669 -4.0719 1.3076 0.0000 -0.0000 0.0000 -73.5778 -11.8422 54.5863 55.9634 -55.1347 -31.0050 -0.0000 0.0000 -81.4691 4.7656 0.0647 0.0054 -7.1250 0.0000 -0.0000 -16.9939 29.8014 6.5635 0.0000 -0.0000 0.0000 70.9362 -8.9281 60.1192 -44.1819 50.3613 -21.6069 0.0000 0.0000 2.7443 -10.8765 -13.0410 2.4826 7.1250 -0.0000 -0.0000 14.8300 -42.7570 0.8408
24.5748 17.0821 -29.3171 -2.9898 -29.3944 9.8618 0.0000 0.0000 0.0000 -16.3994 4.6279 -36.0277 5.1715 13.5744 41.5585 1.0904 3.2960 -21.1690 0.0658 -1.6551 -4.5534 0.0000 0.0000 0.0000 21.3893 9.2468 -28.1455 -6.2152 -14.6337 45.8395 -1.9926 -4.1508 -28.4101 -0.0235 0.9899 -2.7211 3.2302 -3.3719 4.9529 -2.0756 -4.4631 7.9658 -3.9333 -2.0241 5.1043 -7.6744 -6.4052 -5.3484 16.5938 -8.3382 -2.4183 5.9863 -4.0575 1.2547 -0.0000 0.0000 0.0000 -73.6036 -11.8083 54.5778 55.9937 -55.1443 -31.0298 -0.0000 0.0000 -81.4919 4.8641 0.0654 0.0056 -7.1250 0.0000 -0.0000 -16.9192 29.8044 6.5310 -0.0000 0.0000 0.0000 70.8727 -8.9584 60.1603 -44.2064 50.3737 -21.6257 0.0000 0.0000 2.7193 -10.8210 -13.0178 2.4653 7.1250 -0.0000 -0.0000 14.8720 -42.7286 0.8540
24.5770 17.0808 -29.3150 -3.0018 -29.4121 9.8548 0.0000 0.0000 0.0000 -16.3978 4.6405 -36.0284 5.1794 13.5830 41.5920 1.0937 3.2913 -21.1965 0.0650 -1.6452 -4.5261 0.0000 0.0000 0.0000 21.3904 9.2549 -28.1388 -6.2209 -14.6390 45.8618 -1.9923 -4.1589 -28.4119 -0.0242 1.0036 -2.7586 3.1949 -3.3795 4.9895 -2.0527 -4.4730 7.9511 -3.8864 -2.0327 5.0711 -7.7057 -6.3819 -5.2836 16.6053 -8.2959 -2.5194 6.0012 -4.0425 1.2114 0.0000 -0.0000 0.0000 -73.6326 -11.7684 54.5575 56.0351 -55.1573 -31.0638 -0.0000 0.0000 -81.5041 4.9628 0.0757 0.0066 -7.1250 0.0000 -0.0000 -16.8458 29.8167 6.4951 0.0000 -0.0000 0.0000 70.8013 -8.9941 60.2124 -44.2312 50.3862 -21.6449 0.0000 0.0000 2.6984 -10.7769 -12.9954 2.4509 7.1250 -0.0000 -0.0000 14.9044 -42.7022 0.8659
24.5792 17.0795 -29.3131 -3.0131 -29.4276 9.8480 0.0000 0.0000 0.0000 -16.3964 4.6521 -36.0311 5.1873 13.5917 41.6257 1.0970 3.2869 -21.2233 0.0644 -1.6375 -4.5050 0.0000 0.0000 0.0000 21.3915 9.2641 -28.1336 -6.2269 -14.6446 45.8855 -1.9919 -4.1700 -28.4148 -0.0249 1.0180 -2.7983 3.1540 -3.3912 5.0308 -2.0253 -4.4885 7.9314 -3.8309 -2.0448 5.0301 -7.7448 -6.3558 -5.2381 16.6118 -8.2513 -2.5959 6.0149 -4.0246 1.1783 -0.0000 -0.0000 0.0000 -73.6690 -11.7127 54.5354 56.0839 -55.1728 -31.1039 -0.0000 0.0000 -81.5180 5.0643 0.0780 0.0069 -7.1250 0.0000 -0.0000 -16.7690 29.8214 6.4611 -0.0000 -0.0000 0.0000 70.7139 -9.0336 60.2863 -44.2564 50.3990 -21.6643 0.0000 0.0000 2.6789 -10.7499 -12.9797 2.4417 7.1250 -0.0000 -0.0000 14.9235 -42.6841 0.8739
24.5813 17.0780 -29.3113 -3.0266 -29.4412 9.8422 0.0000 0.0000 0.0000 -16.3924 4.6642 -36.0351 5.1952 13.6003 41.6594 1.1000 3.2837 -21.2482 0.0641 -1.6339 -4.4948 0.0000 0.0000 0.0000 21.3952 9.2765 -28.1274 -6.2330 -14.6504 45.9097 -1.9919 -4.1822 -28.4209 -0.0254 1.0279 -2.8255 3.1051 -3.4097 5.0791 -1.9886 -4.5129 7.9025 -3.7604 -2.0624 4.9760 -7.8025 -6.3232 -5.1979 16.6132 -8.1994 -2.6456 6.0300 -4.0016 1.1534 -0.0000 -0.0000 0.0000 -73.7220 -11.6359 54.4924 56.1413 -55.1908 -31.1510 -0.0000 0.0000 -81.5200 5.1679 0.0852 0.0077 -7.1250 0.0000 -0.0000 -16.6914 29.8308 6.4248 -0.0000 -0.0000 0.0000 70.5989 -9.0819 60.3925 -44.2852 50.4135 -21.6865 0.0000 0.0000 2.6632 -10.7380 -12.9774 2.4386 7.1250 -0.0000 -0.0000 14.9333 -42.6806 0.8758
24.5835 17.0765 -29.3096 -3.0412 -29.4499 9.8369 0.0000 0.0000 0.0000 -16.3864 4.6722 -36.0397 5.2031 13.6089 41.6930 1.1027 3.2818 -21.2710 0.0641 -1.6335 -4.4939 0.0000 0.0000 0.0000 21.4006 9.2869 -28.1225 -6.2392 -14.6563 45.9345 -1.9920 -4.1947 -28.4276 -0.0258 1.0365 -2.8493 3.0580 -3.4338 5.1275 -1.9505 -4.5448 7.8701 -3.6889 -2.0837 4.9175 -7.8745 -6.2858 -5.1568 16.6196 -8.1425 -2.6770 6.0490 -3.9753 1.1338 -0.0000 -0.0000 0.0000 -73.7774 -11.5480 54.4385 56.2036 -55.2104 -31.2022 -0.0000 0.0000 -81.5153 5.2713 0.0948 0.0087 -7.1250 0.0000 -0.0000 -16.6143 29.8425 6.3878 -0.0000 -0.0000 0.0000 70.4749 -9.1332 60.5182 -44.3140 50.4280 -21.7087 0.0000 0.0000 2.6539 -10.7411 -12.9887 2.4414 7.1250 -0.0000 -0.0000 14.9338 -42.6921 0.8715
